<svg width="945" height="945" viewBox="0 0 945 945" fill="none" xmlns="http://www.w3.org/2000/svg">
<g filter="url(#filter0_d_2_5)">
<path d="M472.5 891C703.631 891 891 703.631 891 472.5C891 241.369 703.631 54 472.5 54C241.369 54 54 241.369 54 472.5C54 703.631 241.369 891 472.5 891Z" fill="white"/>
</g>
<path fill-rule="evenodd" clip-rule="evenodd" d="M574.224 686.983C570.834 681.154 565.533 676.676 559.219 674.309C552.906 671.941 545.967 671.829 539.58 673.992C495.642 688.527 448.191 688.527 404.253 673.992C397.866 671.829 390.927 671.941 384.614 674.309C378.3 676.676 372.999 681.154 369.609 686.983L304.652 799.576C302.653 803.157 301.43 807.118 301.063 811.202C300.696 815.287 301.192 819.403 302.519 823.283C303.846 827.163 305.975 830.72 308.767 833.723C311.559 836.727 314.952 839.109 318.725 840.716C416.818 881.316 527.015 881.316 625.108 840.716C628.881 839.109 632.274 836.727 635.066 833.723C637.858 830.72 639.987 827.163 641.314 823.283C642.641 819.403 643.137 815.287 642.77 811.202C642.403 807.118 641.18 803.157 639.181 799.576L574.224 686.983Z" fill="#37B2D4"/>
<path fill-rule="evenodd" clip-rule="evenodd" d="M839.466 316.726C819.423 269.367 790.377 226.348 753.939 190.059C741.709 177.681 728.691 166.109 714.964 155.415C711.681 153.038 707.94 151.369 703.977 150.516C700.015 149.662 695.918 149.642 691.948 150.457C687.977 151.271 684.22 152.903 680.913 155.247C677.607 157.592 674.824 160.598 672.742 164.076L607.785 276.669C604.552 282.369 603.329 288.99 604.31 295.469C605.292 301.947 608.422 307.909 613.199 312.395L622.942 321.056C642.812 340.869 658.576 364.407 669.333 390.323C680.09 416.239 685.626 444.023 685.626 472.082C685.626 500.142 680.09 527.926 669.333 553.842C658.576 579.757 642.812 603.296 622.942 623.109L613.198 631.768C608.421 636.254 605.291 642.216 604.309 648.694C603.328 655.173 604.551 661.794 607.784 667.494L672.741 780.087C674.806 783.68 677.612 786.793 680.971 789.22C684.331 791.646 688.168 793.33 692.229 794.161H697.642C703.967 793.928 710.045 791.648 714.964 787.665C728.69 776.971 741.708 765.399 753.938 753.021C810.033 696.862 848.127 625.266 863.36 547.366C878.593 469.466 870.274 388.793 839.465 315.641L839.466 316.726Z" fill="#20587D"/>
<path fill-rule="evenodd" clip-rule="evenodd" d="M641.345 120.772C640.001 116.909 637.861 113.371 635.063 110.388C632.266 107.404 628.874 105.041 625.106 103.45C449.409 31.6546 247.463 93.3896 141.936 251.147C36.4101 408.905 56.4586 619.131 189.891 754.106C202.128 766.475 215.147 778.047 228.865 788.75C233.783 792.734 239.862 795.013 246.187 795.246H251.597C255.657 794.415 259.495 792.731 262.854 790.304C266.214 787.878 269.019 784.764 271.084 781.171L336.041 668.579C339.274 662.879 340.498 656.258 339.516 649.779C338.535 643.3 335.404 637.339 330.628 632.852L320.889 624.191C286.923 590.183 265.44 545.699 259.923 497.952C254.407 450.205 265.18 401.995 290.496 361.138C315.813 320.281 354.188 289.173 399.399 272.859C444.61 256.544 494.006 255.979 539.578 271.256C545.965 273.419 552.904 273.307 559.218 270.939C565.531 268.572 570.833 264.094 574.223 258.265L639.18 145.672C641.359 141.94 642.683 137.771 643.058 133.466C643.432 129.161 642.847 124.826 641.345 120.774V120.772Z" fill="#072C58"/>
<defs>
<filter id="filter0_d_2_5" x="0" y="0" width="945" height="945" filterUnits="userSpaceOnUse" color-interpolation-filters="sRGB">
<feFlood flood-opacity="0" result="BackgroundImageFix"/>
<feColorMatrix in="SourceAlpha" type="matrix" values="0 0 0 0 0 0 0 0 0 0 0 0 0 0 0 0 0 0 127 0" result="hardAlpha"/>
<feOffset/>
<feGaussianBlur stdDeviation="27"/>
<feColorMatrix type="matrix" values="0 0 0 0 0 0 0 0 0 0 0 0 0 0 0 0 0 0 0.161 0"/>
<feBlend mode="normal" in2="BackgroundImageFix" result="effect1_dropShadow_2_5"/>
<feBlend mode="normal" in="SourceGraphic" in2="effect1_dropShadow_2_5" result="shape"/>
</filter>
</defs>
</svg>
