<svg width="3031" height="945" viewBox="0 0 3031 945" fill="none" xmlns="http://www.w3.org/2000/svg">
<g filter="url(#filter0_d_17_40)">
<path d="M472.5 891C703.631 891 891 703.631 891 472.5C891 241.369 703.631 54 472.5 54C241.369 54 54 241.369 54 472.5C54 703.631 241.369 891 472.5 891Z" fill="white"/>
</g>
<path fill-rule="evenodd" clip-rule="evenodd" d="M574.224 686.983C570.834 681.154 565.533 676.676 559.219 674.309C552.906 671.941 545.967 671.829 539.58 673.992C495.642 688.527 448.191 688.527 404.253 673.992C397.866 671.829 390.927 671.941 384.614 674.309C378.3 676.676 372.999 681.154 369.609 686.983L304.652 799.576C302.653 803.157 301.43 807.118 301.063 811.202C300.696 815.287 301.192 819.403 302.519 823.283C303.846 827.163 305.975 830.72 308.767 833.723C311.559 836.727 314.952 839.109 318.725 840.716C416.818 881.316 527.015 881.316 625.108 840.716C628.881 839.109 632.274 836.727 635.066 833.723C637.858 830.72 639.987 827.163 641.314 823.283C642.641 819.403 643.137 815.287 642.77 811.202C642.403 807.118 641.18 803.157 639.181 799.576L574.224 686.983Z" fill="#37B2D4"/>
<path fill-rule="evenodd" clip-rule="evenodd" d="M839.466 316.726C819.423 269.367 790.377 226.348 753.939 190.059C741.709 177.681 728.691 166.109 714.964 155.415C711.681 153.038 707.94 151.369 703.977 150.516C700.015 149.662 695.918 149.642 691.948 150.457C687.977 151.271 684.22 152.903 680.913 155.247C677.607 157.592 674.824 160.598 672.742 164.076L607.785 276.669C604.552 282.369 603.329 288.99 604.31 295.469C605.292 301.947 608.422 307.909 613.199 312.395L622.942 321.056C642.812 340.869 658.576 364.407 669.333 390.323C680.09 416.239 685.626 444.023 685.626 472.082C685.626 500.142 680.09 527.926 669.333 553.842C658.576 579.757 642.812 603.296 622.942 623.109L613.198 631.768C608.421 636.254 605.291 642.216 604.309 648.694C603.328 655.173 604.551 661.794 607.784 667.494L672.741 780.087C674.806 783.68 677.612 786.793 680.971 789.22C684.331 791.646 688.168 793.33 692.229 794.161H697.642C703.967 793.928 710.045 791.648 714.964 787.665C728.69 776.971 741.708 765.399 753.938 753.021C810.033 696.862 848.127 625.266 863.36 547.366C878.593 469.466 870.274 388.793 839.465 315.641L839.466 316.726Z" fill="#20587D"/>
<path fill-rule="evenodd" clip-rule="evenodd" d="M641.345 120.772C640.001 116.909 637.861 113.371 635.063 110.388C632.266 107.404 628.874 105.041 625.106 103.45C449.409 31.6546 247.463 93.3896 141.936 251.147C36.4101 408.905 56.4586 619.131 189.891 754.106C202.128 766.475 215.147 778.047 228.865 788.75C233.783 792.734 239.862 795.013 246.187 795.246H251.597C255.657 794.415 259.495 792.731 262.854 790.304C266.214 787.878 269.019 784.764 271.084 781.171L336.041 668.579C339.274 662.879 340.498 656.258 339.516 649.779C338.535 643.3 335.404 637.339 330.628 632.852L320.889 624.191C286.923 590.183 265.44 545.699 259.923 497.952C254.407 450.205 265.18 401.995 290.496 361.138C315.813 320.281 354.188 289.173 399.399 272.859C444.61 256.544 494.006 255.979 539.578 271.256C545.965 273.419 552.904 273.307 559.218 270.939C565.531 268.572 570.833 264.094 574.223 258.265L639.18 145.672C641.359 141.94 642.683 137.771 643.058 133.466C643.432 129.161 642.847 124.826 641.345 120.774V120.772Z" fill="#072C58"/>
<path d="M987.791 426.096H1022.38L1056.98 426.096C1062.91 425.438 1074.77 427.872 1074.77 442.874V573.057H1205.23V442.874C1205.23 427.872 1217.09 425.438 1223.02 426.096L1257.62 426.096H1292.21C1298.14 425.438 1310 427.872 1310 442.874V622.5V802.126C1310 817.128 1298.14 819.562 1292.21 818.904H1257.62L1223.02 818.904C1217.09 819.562 1205.23 817.128 1205.23 802.126V662.965H1074.77V802.126C1074.77 817.128 1062.91 819.562 1056.98 818.904L1022.38 818.904H987.791C981.86 819.562 970 817.128 970 802.126V622.5V442.874C970 427.872 981.86 425.438 987.791 426.096Z" fill="#21425B"/>
<path d="M1398.83 430.096H1433.5L1468.17 430.096C1474.11 429.438 1486 431.872 1486 446.874V626.502V799.126C1486 814.128 1474.11 816.562 1468.17 815.904L1433.5 815.904H1398.83C1392.89 816.562 1381 814.128 1381 799.126V626.502V446.874C1381 431.872 1392.89 429.438 1398.83 430.096Z" fill="#21425B"/>
<path d="M1576.78 426.096L1630.11 426.987C1636.69 427.645 1651.44 432.516 1657.76 446.732L1782.2 635.296V443.77C1782.2 428.764 1794.05 426.329 1799.98 426.987H1825.66H1860.22C1866.15 426.329 1878 428.764 1878 443.77V616.443V796.121C1878 811.127 1866.15 813.562 1860.22 812.904H1806.89C1801.62 812.278 1789.31 807.866 1782.2 795.23L1654.8 615.551V795.23C1654.8 810.236 1642.95 812.671 1637.02 812.013H1611.34H1576.78C1570.85 812.671 1559 810.236 1559 795.23V622.557V442.879C1559 427.873 1570.85 425.438 1576.78 426.096Z" fill="#21425B"/>
<path fill-rule="evenodd" clip-rule="evenodd" d="M2111 422.003C2054.67 421.671 1942 447.141 1942 551.679V623.5V695.321C1942 799.859 2054.67 825.329 2111 824.997C2167.33 825.329 2280 799.859 2280 695.321V623.5V551.679C2280 447.141 2167.33 421.671 2111 422.003ZM2047.5 551.679C2047.5 512.577 2089.83 504.796 2111 505.794C2132.17 504.796 2174.5 512.577 2174.5 551.679V623.5V695.321C2174.5 734.423 2132.17 742.204 2111 741.206C2089.83 742.204 2047.5 734.423 2047.5 695.321V623.5V551.679Z" fill="#21425B"/>
<path d="M2414.34 455.618L2486.5 680.718L2558.66 455.618C2563.94 445.746 2578.44 426 2594.25 426H2655.54C2662.46 426.329 2672.94 434.293 2659.5 463.517L2548.78 800.178C2546.14 804.785 2537.71 814 2525.05 814H2486.5H2447.95C2435.29 814 2426.86 804.785 2424.22 800.178L2313.5 463.517C2300.06 434.293 2310.54 426.329 2317.46 426H2378.75C2394.56 426 2409.06 445.746 2414.34 455.618Z" fill="#21425B"/>
<path fill-rule="evenodd" clip-rule="evenodd" d="M2916.79 783.458C2922.4 793.305 2937.83 813 2954.66 813H3019.87C3027.24 812.672 3038.39 804.728 3024.08 775.58L2906.27 439.786C2903.46 435.191 2894.49 426 2881.02 426H2840H2798.98C2785.51 426 2776.54 435.191 2773.73 439.786L2655.92 775.58C2641.61 804.728 2652.76 812.672 2660.13 813H2725.34C2742.17 813 2757.6 793.305 2763.21 783.458L2774.96 744.88H2905.04L2916.79 783.458ZM2798.11 668.862L2840 531.296L2881.89 668.862H2798.11Z" fill="#21425B"/>
<path d="M981.904 256.744C981.904 242.597 983.423 230.727 986.459 221.135C989.564 211.473 993.947 203.71 999.605 197.844C1005.33 191.909 1012.2 187.665 1020.21 185.111C1028.21 182.558 1037.18 181.281 1047.12 181.281C1053.81 181.281 1059.78 181.626 1065.03 182.316C1070.34 183.007 1074.9 183.766 1078.69 184.594C1083.04 185.56 1086.94 186.63 1090.39 187.803V206.539C1086.66 206.125 1082.66 205.78 1078.38 205.504C1074.72 205.228 1070.55 204.986 1065.86 204.779C1061.16 204.503 1056.33 204.365 1051.36 204.365C1042.74 204.365 1035.59 205.297 1029.94 207.16C1024.28 208.954 1019.79 211.922 1016.48 216.062C1013.17 220.203 1010.82 225.62 1009.44 232.314C1008.13 238.939 1007.47 247.083 1007.47 256.744C1007.47 266.613 1008.16 275.066 1009.54 282.105C1010.99 289.076 1013.34 294.803 1016.58 299.289C1019.83 303.775 1024.1 307.087 1029.42 309.227C1034.73 311.297 1041.29 312.332 1049.09 312.332C1052.47 312.332 1055.54 312.229 1058.3 312.021C1061.06 311.814 1063.41 311.538 1065.34 311.193C1067.62 310.848 1069.62 310.434 1071.34 309.951V271.961H1044.43V249.291H1095.98V324.961C1091.91 326.893 1087.46 328.618 1082.62 330.137C1078.48 331.448 1073.58 332.621 1067.93 333.656C1062.34 334.691 1056.26 335.209 1049.71 335.209C1039.01 335.209 1029.45 334.001 1021.03 331.586C1012.68 329.171 1005.61 324.961 999.812 318.957C994.016 312.953 989.564 304.913 986.459 294.838C983.423 284.762 981.904 272.064 981.904 256.744ZM1128.59 184.283H1183.55C1187.49 184.283 1191.32 184.559 1195.04 185.111C1198.84 185.594 1202.39 186.492 1205.71 187.803C1209.09 189.114 1212.16 190.908 1214.92 193.186C1217.68 195.394 1220.06 198.258 1222.06 201.777C1224.13 205.297 1225.72 209.507 1226.82 214.406C1227.93 219.306 1228.48 225.068 1228.48 231.693C1228.48 236.11 1228.1 240.078 1227.34 243.598C1226.65 247.048 1225.68 250.119 1224.44 252.811C1223.27 255.502 1221.89 257.848 1220.3 259.85C1218.78 261.851 1217.23 263.576 1215.64 265.025C1211.85 268.338 1207.57 270.65 1202.81 271.961V272.168L1233.96 332H1205.6L1177.96 277.758H1153.43V332H1128.59V184.283ZM1183.35 254.363C1196.32 254.363 1202.81 246.324 1202.81 230.244C1202.81 226.035 1202.32 222.48 1201.36 219.582C1200.46 216.615 1199.11 214.234 1197.32 212.439C1195.6 210.645 1193.49 209.368 1191.01 208.609C1188.52 207.781 1185.76 207.367 1182.72 207.367H1153.43V254.363H1183.35ZM1261.19 184.283H1285.83V283.037C1285.83 288.903 1286.34 293.734 1287.38 297.529C1288.41 301.325 1290.1 304.327 1292.45 306.535C1294.87 308.674 1297.97 310.193 1301.77 311.09C1305.56 311.918 1310.22 312.332 1315.74 312.332C1320.71 312.332 1325.02 311.918 1328.68 311.09C1332.41 310.193 1335.51 308.674 1338 306.535C1340.48 304.327 1342.31 301.325 1343.48 297.529C1344.73 293.734 1345.35 288.903 1345.35 283.037V184.283H1369.98V284.486C1369.98 293.113 1368.98 300.6 1366.98 306.949C1365.05 313.298 1361.91 318.577 1357.56 322.787C1353.21 326.928 1347.59 330.033 1340.69 332.104C1333.86 334.174 1325.54 335.209 1315.74 335.209C1305.94 335.209 1297.59 334.174 1290.69 332.104C1283.79 330.102 1278.13 327.031 1273.71 322.891C1269.37 318.75 1266.19 313.54 1264.19 307.26C1262.19 300.911 1261.19 293.458 1261.19 284.9V184.283ZM1407.25 184.283H1465.84C1469.01 184.283 1472.22 184.525 1475.47 185.008C1478.71 185.491 1481.82 186.423 1484.78 187.803C1487.75 189.114 1490.51 190.908 1493.06 193.186C1495.62 195.463 1497.86 198.396 1499.79 201.984C1501.73 205.504 1503.21 209.783 1504.24 214.82C1505.35 219.858 1505.9 225.758 1505.9 232.521C1505.9 239.285 1505.31 245.185 1504.14 250.223C1502.97 255.191 1501.38 259.436 1499.38 262.955C1497.38 266.475 1495.03 269.339 1492.34 271.547C1489.65 273.755 1486.78 275.515 1483.75 276.826C1480.71 278.068 1477.57 278.931 1474.33 279.414C1471.15 279.828 1468.01 280.035 1464.91 280.035H1432.09V332H1407.25V184.283ZM1462.01 256.951C1465.74 256.951 1468.74 256.33 1471.02 255.088C1473.36 253.846 1475.19 252.12 1476.5 249.912C1477.88 247.704 1478.81 245.116 1479.3 242.148C1479.78 239.181 1480.02 235.972 1480.02 232.521C1480.02 229.14 1479.78 225.931 1479.3 222.895C1478.81 219.858 1477.88 217.201 1476.5 214.924C1475.19 212.577 1473.36 210.749 1471.02 209.438C1468.74 208.057 1465.74 207.367 1462.01 207.367H1432.09V256.951H1462.01ZM1586.95 335.209C1580.6 335.209 1574.7 334.76 1569.25 333.863C1563.8 332.966 1558.83 331.413 1554.35 329.205C1549.86 326.928 1545.86 323.926 1542.34 320.199C1538.89 316.473 1535.95 311.78 1533.54 306.121C1531.12 300.393 1529.29 293.63 1528.05 285.832C1526.81 278.034 1526.19 268.959 1526.19 258.607C1526.19 243.08 1527.57 230.313 1530.33 220.307C1533.09 210.3 1537.09 202.433 1542.34 196.705C1547.58 190.908 1553.97 186.906 1561.49 184.697C1569.01 182.42 1577.5 181.281 1586.95 181.281C1593.23 181.281 1599.1 181.764 1604.55 182.73C1610 183.697 1614.97 185.318 1619.46 187.596C1623.94 189.873 1627.91 192.944 1631.36 196.809C1634.81 200.604 1637.71 205.366 1640.06 211.094C1642.47 216.822 1644.3 223.619 1645.54 231.486C1646.79 239.285 1647.41 248.325 1647.41 258.607C1647.41 268.89 1646.79 277.93 1645.54 285.729C1644.3 293.527 1642.47 300.29 1640.06 306.018C1637.71 311.676 1634.81 316.404 1631.36 320.199C1627.91 323.926 1623.94 326.893 1619.46 329.102C1614.97 331.31 1610 332.863 1604.55 333.76C1599.1 334.726 1593.23 335.209 1586.95 335.209ZM1586.95 312.332C1593.72 312.332 1599.31 311.538 1603.72 309.951C1608.21 308.364 1611.76 305.569 1614.38 301.566C1617.01 297.495 1618.84 292.008 1619.87 285.107C1620.98 278.137 1621.53 269.304 1621.53 258.607C1621.53 247.842 1620.98 238.974 1619.87 232.004C1618.84 225.034 1617.01 219.513 1614.38 215.441C1611.76 211.301 1608.21 208.437 1603.72 206.85C1599.31 205.193 1593.72 204.365 1586.95 204.365C1580.19 204.365 1574.57 205.193 1570.08 206.85C1565.59 208.437 1562.04 211.301 1559.42 215.441C1556.8 219.513 1554.93 225.034 1553.83 232.004C1552.79 238.974 1552.28 247.842 1552.28 258.607C1552.28 269.304 1552.79 278.137 1553.83 285.107C1554.93 292.008 1556.8 297.495 1559.42 301.566C1562.04 305.569 1565.59 308.364 1570.08 309.951C1574.57 311.538 1580.19 312.332 1586.95 312.332Z" fill="#89AFBE"/>
<defs>
<filter id="filter0_d_17_40" x="0" y="0" width="945" height="945" filterUnits="userSpaceOnUse" color-interpolation-filters="sRGB">
<feFlood flood-opacity="0" result="BackgroundImageFix"/>
<feColorMatrix in="SourceAlpha" type="matrix" values="0 0 0 0 0 0 0 0 0 0 0 0 0 0 0 0 0 0 127 0" result="hardAlpha"/>
<feOffset/>
<feGaussianBlur stdDeviation="27"/>
<feColorMatrix type="matrix" values="0 0 0 0 0 0 0 0 0 0 0 0 0 0 0 0 0 0 0.161 0"/>
<feBlend mode="normal" in2="BackgroundImageFix" result="effect1_dropShadow_17_40"/>
<feBlend mode="normal" in="SourceGraphic" in2="effect1_dropShadow_17_40" result="shape"/>
</filter>
</defs>
</svg>
