<svg width="333" height="333" viewBox="0 0 333 333" fill="none" xmlns="http://www.w3.org/2000/svg">
<path d="M80.7273 166.5C80.7273 119.129 119.129 80.7273 166.5 80.7273C175.522 80.7273 184.218 82.1202 192.386 84.7026C199.49 86.9486 207.57 84.5933 211.233 78.1058L237.358 31.8376C241.23 24.9796 238.703 16.22 231.453 13.1452C211.495 4.68144 189.544 0 166.5 0C138.347 0 111.825 6.98748 88.5758 19.3228C85.916 20.734 83.299 22.2151 80.7273 23.7639C32.3548 52.8942 0 105.919 0 166.5C0 221.922 27.079 271.02 68.7282 301.285C75.1075 305.92 83.9292 303.565 87.8064 296.699L113.93 250.433C117.588 243.954 115.444 235.827 109.858 230.911C91.9972 215.193 80.7273 192.162 80.7273 166.5Z" fill="#03529B"/>
<path d="M333 166.5C333 219.188 308.527 266.16 270.328 296.669C264.073 301.666 255.013 299.566 250.924 292.682L223.608 246.688C219.925 240.487 221.655 232.583 226.785 227.514C242.522 211.964 252.273 190.371 252.273 166.5C252.273 143.658 243.344 122.901 228.785 107.529C224.026 102.504 222.479 94.9622 225.933 88.9645L258.439 32.5152V32.5152C259.648 30.6695 262.142 30.1754 263.93 31.4679C305.773 61.7116 333 110.926 333 166.5Z" fill="#007CBA"/>
<path d="M166.5 333C146.16 333 126.671 329.353 108.653 322.676C101.008 319.844 98.215 310.756 102.283 303.691L129.257 256.85C132.713 250.848 140.02 248.403 146.761 249.99C153.098 251.483 159.707 252.273 166.5 252.273C175.522 252.273 184.218 250.88 192.386 248.297C199.49 246.051 207.57 248.407 211.233 254.894L237.358 301.162C241.23 308.02 238.704 316.78 231.453 319.855C211.495 328.319 189.544 333 166.5 333Z" fill="#00ADD9"/>
</svg>
